<?xml version="1.0" ?><!DOCTYPE svg  PUBLIC '-//W3C//DTD SVG 1.1//EN'  'http://www.w3.org/Graphics/SVG/1.1/DTD/svg11.dtd'><svg enable-background="new 0 0 100 100" height="100px" id="Layer_1" version="1.1" viewBox="0 0 100 100" width="100px" xml:space="preserve" xmlns="http://www.w3.org/2000/svg" xmlns:xlink="http://www.w3.org/1999/xlink"><path d="M29.339,73.715c-4.579,0-8.304,3.725-8.304,8.303v9.68c0,4.577,3.725,8.303,8.304,8.303c4.578,0,8.303-3.726,8.303-8.303  v-9.68C37.642,77.439,33.917,73.715,29.339,73.715z"/><path d="M71.976,73.715c-4.577,0-8.303,3.725-8.303,8.303v9.68c0,4.577,3.726,8.303,8.303,8.303s8.303-3.726,8.303-8.303v-9.68  C80.278,77.439,76.553,73.715,71.976,73.715z"/><rect height="3.491" width="72.956" x="13.847" y="96.509"/><path d="M76.916,1.746h-53.83c-7.848,0-14.209,6.362-14.209,14.207v53.831c0,7.848,6.361,14.21,14.209,14.21h53.83  c7.848,0,14.207-6.362,14.207-14.21V15.952C91.123,8.107,84.764,1.746,76.916,1.746" fill="#63AF31"/><path d="M76.916,85.739h-53.83c-8.797,0-15.954-7.157-15.954-15.956V15.952C7.132,7.156,14.289,0,23.086,0h53.83  c8.796,0,15.952,7.156,15.952,15.952v53.831C92.868,78.582,85.712,85.739,76.916,85.739z M23.086,3.492  c-6.872,0-12.463,5.59-12.463,12.46v53.831c0,6.872,5.591,12.464,12.463,12.464h53.83c6.871,0,12.461-5.592,12.461-12.464V15.952  c0-6.871-5.59-12.46-12.461-12.46H23.086z"/><path d="M16.198,29.562h-3.492v-12.78c0-6.017,4.896-10.911,10.911-10.911h17.362v3.492H23.617  c-4.09,0-7.419,3.329-7.419,7.419V29.562z" fill="#FFFFFF"/><path d="M69.427,16.348H30.575c-4.305,0-7.795,3.49-7.795,7.793v21.802c0,4.303,3.49,7.793,7.795,7.793h38.852  c4.303,0,7.793-3.49,7.793-7.793V24.141C77.22,19.838,73.729,16.348,69.427,16.348" fill="#FFFFFF"/><path d="M69.427,55.481H30.575c-5.262,0-9.54-4.279-9.54-9.539V24.141c0-5.259,4.278-9.539,9.54-9.539h38.852  c5.26,0,9.539,4.279,9.539,9.539v21.802C78.966,51.202,74.687,55.481,69.427,55.481z M30.575,18.094  c-3.335,0-6.049,2.712-6.049,6.047v21.802c0,3.335,2.714,6.047,6.049,6.047h38.852c3.335,0,6.047-2.712,6.047-6.047V24.141  c0-3.334-2.712-6.047-6.047-6.047H30.575z"/><path d="M36.302,68.496c0-3.847-3.116-6.965-6.963-6.965c-3.846,0-6.964,3.118-6.964,6.965  c0,3.846,3.118,6.963,6.964,6.963C33.186,75.459,36.302,72.342,36.302,68.496" fill="#FFFFFF"/><path d="M29.339,77.204c-4.803,0-8.71-3.905-8.71-8.708s3.907-8.71,8.71-8.71s8.709,3.907,8.709,8.71S34.142,77.204,29.339,77.204z   M29.339,63.277c-2.878,0-5.219,2.341-5.219,5.219c0,2.876,2.341,5.217,5.219,5.217c2.876,0,5.217-2.341,5.217-5.217  C34.556,65.618,32.215,63.277,29.339,63.277z"/><path d="M78.939,68.496c0-3.847-3.118-6.965-6.964-6.965s-6.964,3.118-6.964,6.965c0,3.846,3.118,6.963,6.964,6.963  S78.939,72.342,78.939,68.496" fill="#FFFFFF"/><path d="M71.976,77.204c-4.803,0-8.71-3.905-8.71-8.708s3.907-8.71,8.71-8.71s8.71,3.907,8.71,8.71S76.778,77.204,71.976,77.204z   M71.976,63.277c-2.878,0-5.219,2.341-5.219,5.219c0,2.876,2.341,5.217,5.219,5.217s5.219-2.341,5.219-5.217  C77.194,65.618,74.854,63.277,71.976,63.277z"/></svg>